<?xml version="1.0" encoding="UTF-8"?> <svg xmlns="http://www.w3.org/2000/svg" width="28" height="28" viewBox="0 0 28 28" fill="none"> <path fill-rule="evenodd" clip-rule="evenodd" d="M12.9613 0.0180292C12.8687 0.0308171 12.553 0.0685639 12.2597 0.101936C9.81854 0.379456 7.38052 1.39683 5.30003 3.00625C4.68444 3.48244 3.46515 4.70161 2.98605 5.32003C1.43247 7.32532 0.490446 9.53062 0.0972811 12.083C-0.032427 12.9253 -0.032427 15.0889 0.0972811 15.9312C0.72556 20.01 2.86274 23.4128 6.19805 25.6447C8.05146 26.885 9.95246 27.5981 12.2878 27.929C13.0459 28.0364 15.1082 28.0188 15.936 27.8978C18.0277 27.5921 20.0375 26.8258 21.7451 25.6832C25.2067 23.3667 27.335 19.9379 27.9308 15.7178C28.0247 15.0526 28.0226 12.9525 27.9273 12.2684C27.431 8.70546 25.7159 5.54584 23.064 3.30918C21.06 1.61893 18.5603 0.497296 15.964 0.123474C15.3582 0.0362576 13.3414 -0.0345808 12.9613 0.0180292ZM17.6478 4.52869C18.2189 4.55965 18.743 4.59801 18.8125 4.61383L18.9387 4.64266V6.15595V7.66925H17.7971C16.2354 7.66925 15.9236 7.77368 15.6354 8.39328C15.491 8.70378 15.4896 8.72049 15.4883 10.081L15.487 11.4551L17.1639 11.47L18.8409 11.4849L18.8129 11.6663C18.7974 11.7661 18.6999 12.5229 18.596 13.3481L18.4072 14.8484H16.9331H15.4589V19.1952V23.542H13.719H11.9791V19.1952V14.8484H10.5198H9.0605V13.1658V11.4832H10.515H11.9695L11.9927 9.73046C12.019 7.73678 12.0591 7.48685 12.4932 6.60426C12.9481 5.67932 13.9025 4.92489 14.9485 4.66336C15.7009 4.47524 16.2022 4.45022 17.6478 4.52869Z" fill="white"></path> </svg> 