<?xml version="1.0" encoding="UTF-8"?> <svg xmlns="http://www.w3.org/2000/svg" width="28" height="27" viewBox="0 0 28 27" fill="none"> <path d="M14.0001 0C6.57726 0 0.560059 6.0172 0.560059 13.44C0.560059 20.8628 6.57726 26.88 14.0001 26.88C21.4229 26.88 27.4401 20.8628 27.4401 13.44C27.4401 6.0172 21.4229 0 14.0001 0ZM19.1689 15.1634C19.1689 15.1634 20.3575 16.3366 20.6501 16.8812C20.6585 16.8924 20.6627 16.9036 20.6655 16.9092C20.7845 17.1094 20.8125 17.2648 20.7537 17.381C20.6557 17.5742 20.3197 17.6694 20.2049 17.6778H18.1049C17.9593 17.6778 17.6541 17.64 17.2845 17.3852C17.0003 17.1864 16.7203 16.8602 16.4473 16.5424C16.0399 16.0692 15.6871 15.6604 15.3315 15.6604C15.2863 15.6603 15.2414 15.6674 15.1985 15.6814C14.9297 15.7682 14.5853 16.1518 14.5853 17.1738C14.5853 17.493 14.3333 17.6764 14.1555 17.6764H13.1937C12.8661 17.6764 11.1595 17.5616 9.64746 15.967C7.79666 14.014 6.13066 10.0968 6.11666 10.0604C6.01166 9.807 6.22866 9.6712 6.46526 9.6712H8.58626C8.86906 9.6712 8.96146 9.8434 9.02586 9.996C9.10146 10.1738 9.37866 10.8808 9.83366 11.676C10.5715 12.9724 11.0237 13.4988 11.3863 13.4988C11.4542 13.498 11.521 13.4807 11.5809 13.4484C12.0541 13.1852 11.9659 11.4982 11.9449 11.1482C11.9449 11.0824 11.9435 10.3936 11.7013 10.0632C11.5277 9.8238 11.2323 9.7328 11.0531 9.6992C11.1256 9.59912 11.2211 9.51796 11.3317 9.4626C11.6565 9.3002 12.2417 9.2764 12.8227 9.2764H13.1461C13.7761 9.2848 13.9385 9.3254 14.1667 9.3828C14.6287 9.4934 14.6385 9.7916 14.5979 10.8122C14.5853 11.102 14.5727 11.4296 14.5727 11.816C14.5727 11.9 14.5685 11.9896 14.5685 12.0848C14.5545 12.6042 14.5377 13.1936 14.9045 13.4358C14.9523 13.4658 15.0076 13.4818 15.0641 13.482C15.1915 13.482 15.5751 13.482 16.6139 11.6998C16.9342 11.1262 17.2126 10.5301 17.4469 9.9162C17.4679 9.8798 17.5295 9.7678 17.6023 9.7244C17.656 9.69701 17.7156 9.68308 17.7759 9.6838H20.2693C20.5409 9.6838 20.7271 9.7244 20.7621 9.8294C20.8237 9.996 20.7509 10.5042 19.6127 12.0456L19.1045 12.7162C18.0727 14.0686 18.0727 14.1372 19.1689 15.1634V15.1634Z" fill="#D9E3EC"></path> </svg> 