<?xml version="1.0" encoding="UTF-8"?> <svg xmlns="http://www.w3.org/2000/svg" width="150" height="56" viewBox="0 0 150 56" fill="none"> <path fill-rule="evenodd" clip-rule="evenodd" d="M115.785 0.151889C115.672 0.265173 110.62 0.600858 104.558 0.898277C94.5843 1.38779 93.3719 1.51926 91.8057 2.28004C90.0178 3.14843 88.842 4.634 88.4214 6.55453C88.2209 7.47028 88.3648 7.80899 89.2585 8.52848L90.3372 9.39724L90.4528 8.57546C90.8927 5.44139 92.0541 4.2449 94.9796 3.91186C99.0782 3.44547 116.483 2.81312 117.551 3.09197C118.189 3.25868 119.124 3.83533 119.628 4.37334C120.378 5.17466 120.544 5.74563 120.544 7.529C120.544 9.34496 120.363 9.94434 119.456 11.1382C117.832 13.2747 116.702 13.5823 109.416 13.8695C105.863 14.0097 102.89 14.2325 102.809 14.3651C102.728 14.4973 102.539 16.114 102.39 17.958L102.119 21.3099L106.826 21.128C109.415 21.028 111.911 21.0867 112.374 21.2584C112.836 21.43 113.464 22.1699 113.769 22.9023C114.252 24.0621 114.254 24.4019 113.784 25.531C112.863 27.7428 111.843 28.127 106.371 28.3252L101.507 28.5014L101.319 30.0619C101.216 30.9205 101.03 32.5417 100.906 33.6647L100.681 35.7068L107.458 35.4344C113.287 35.1999 114.399 35.2465 115.401 35.7667C119.07 37.6706 118.172 43.6473 113.936 45.5148C113.417 45.7437 109.011 46.1214 104.145 46.354L95.2983 46.7776L95.0015 47.8953C94.838 48.5098 94.7632 49.0717 94.835 49.1437C94.9067 49.2161 99.1066 49.0835 104.168 48.8497C112.729 48.4542 113.508 48.3587 115.353 47.4778C119.914 45.3011 121.554 39.1898 118.615 35.3238C116.92 33.0937 115.894 32.8054 109.971 32.8937C107.064 32.9372 104.388 33.0642 104.025 33.1756C103.5 33.337 103.364 33.1506 103.364 32.2678C103.364 31.2338 103.485 31.1406 105.116 30.9163C106.079 30.7837 107.821 30.6716 108.986 30.667C111.253 30.6583 113.686 29.7619 114.771 28.5366C116.705 26.3508 116.979 22.9845 115.403 20.7639C114.056 18.8654 112.778 18.466 108.506 18.6085L104.685 18.7358L104.817 17.7909C104.889 17.2714 105.005 16.7865 105.075 16.7134C105.145 16.6402 107.805 16.4523 110.985 16.2955C117.43 15.9783 118.98 15.4911 120.931 13.169C122.577 11.2102 123.094 9.59085 122.925 6.92848C122.803 4.99507 122.566 4.29794 121.635 3.12607C120.215 1.33891 116.49 -0.555474 115.785 0.151889ZM47.8594 3.47388C34.8329 4.07289 34.0351 4.66431 32.7022 14.7076C32.2491 18.1239 32.2506 18.1364 33.1629 18.8983C34.2359 19.7948 34.5165 19.8599 34.5229 19.2143C34.5414 17.3809 35.9498 9.1165 36.3538 8.47278C37.4722 6.69017 38.8583 6.43973 50.8831 5.84641C57.1324 5.538 62.6432 5.3857 63.1292 5.50807C64.5568 5.86801 66.0214 7.69002 66.2487 9.39005C66.5266 11.4708 65.2636 14.0639 63.4078 15.2217C62.1603 15.9999 61.2877 16.1269 54.8488 16.4675L47.6786 16.8463L47.4445 18.5513C47.3157 19.489 47.096 21.1481 46.9563 22.2381L46.7025 24.2204L47.7529 24.056C48.3306 23.9658 50.8064 23.7972 53.2547 23.6817C57.6116 23.4763 57.7256 23.4915 58.6352 24.4042C60.7092 26.4857 59.023 30.5988 56.0427 30.7269C55.3839 30.7549 52.8084 30.883 50.3197 31.011L45.7948 31.2437L44.9271 38.2392C44.3445 42.9328 43.8389 45.6126 43.39 46.3836C41.4141 49.7783 35.8897 50.6475 32.9197 48.0306C31.2625 46.5704 30.7411 44.6764 31.1987 41.7795C31.3897 40.5693 31.5098 39.5392 31.4656 39.4907C31.4211 39.4422 30.8611 39.6009 30.2211 39.8434C29.0397 40.2909 28.6145 41.3703 28.6092 43.936C28.6028 46.875 30.5972 49.945 33.3192 51.1859C36.2416 52.518 41.0743 51.9201 43.4825 49.928C45.6732 48.1162 46.2362 46.5552 47.082 39.9476C47.5026 36.6608 47.9281 33.8901 48.0274 33.7901C48.1268 33.6905 50.3012 33.4976 52.8593 33.3612C58.1421 33.0797 59.6101 32.4849 61.1367 30.0066C62.2116 28.2611 62.3026 25.204 61.324 23.7055C59.8907 21.5107 58.7024 21.1341 53.7788 21.3133L49.3142 21.4762L49.5616 20.4881C49.6975 19.9448 49.8689 19.4398 49.9425 19.3659C50.0158 19.292 52.848 19.0666 56.2361 18.8646C61.9134 18.5263 62.5443 18.4149 64.2842 17.4423C65.5525 16.7334 66.544 15.7885 67.3048 14.5625C68.2884 12.9784 68.4376 12.3813 68.4376 10.0285C68.4376 7.76428 68.2835 7.09329 67.5 5.94605C66.9846 5.19095 65.9418 4.2233 65.1832 3.79517C63.614 2.91011 61.1287 2.86427 47.8594 3.47388ZM133.381 4.93256C130.682 5.08184 127.836 5.22354 127.057 5.2474C125.745 5.28757 125.641 5.37395 125.641 6.42723V7.56386L128.567 7.54643C130.177 7.53696 134.212 7.38465 137.535 7.20847C142.241 6.95879 143.841 6.99782 144.774 7.38389C148.462 8.91001 148.232 14.5761 144.389 16.8301C142.95 17.6742 142.269 17.7723 136.139 18.0175L129.457 18.2842L129.237 20.407C129.116 21.5743 128.932 23.1831 128.83 23.9817L128.643 25.4343L133.97 25.3078C139.185 25.1843 139.313 25.2006 140.021 26.0762C141.09 27.3988 140.953 29.2924 139.683 30.7185C138.441 32.1136 136.68 32.5121 131.61 32.547C129.805 32.5595 128.251 32.6978 128.157 32.8539C128.062 33.01 127.861 34.6479 127.709 36.493L127.433 39.8483L134.208 39.5733C141.895 39.2615 142.802 39.4695 143.903 41.798C144.684 43.4488 144.685 44.7836 143.908 46.323C142.111 49.8848 141.801 49.9712 128.521 50.6259C122.265 50.9343 116.348 51.0987 115.373 50.9915C114.398 50.8843 112.995 50.8953 112.254 51.0161C111.1 51.204 110.975 51.3181 111.383 51.8121C112.315 52.9408 114.245 53.408 117.983 53.4102C124.492 53.4144 138.989 52.6298 140.743 52.1785C142.907 51.6216 145.794 48.83 146.374 46.7325C147.351 43.2029 146.313 39.6922 143.814 38.0729C141.925 36.8495 140.917 36.7287 135.175 37.0371L130.172 37.3057L130.172 36.3081C130.172 35.0658 130.849 34.8551 134.867 34.8483C137.129 34.8441 138.263 34.6486 139.497 34.0489C143.873 31.9234 144.28 24.9827 140.131 23.2429C139.192 22.8493 137.665 22.6992 135.136 22.7519C131.508 22.8277 131.493 22.8243 131.379 21.879C131.279 21.0458 131.44 20.9011 132.701 20.6919C133.491 20.5612 135.496 20.451 137.157 20.4476C144.956 20.4313 148.047 18.6725 149.62 13.3554C150.16 11.5322 150.148 11.2856 149.431 9.36087C148.082 5.74411 145.93 4.4942 141.228 4.59687C139.612 4.63211 136.081 4.78328 133.381 4.93256ZM10.2346 5.90741C8.33202 6.58408 6.06012 8.72133 5.28683 10.5623C4.37573 12.731 4.54111 15.5529 5.69537 17.5287C6.23871 18.4592 6.94252 19.32 7.25931 19.442C7.96086 19.7122 8.02542 20.4457 7.34805 20.4457C6.67595 20.4457 3.90187 23.3922 3.13613 24.9191C2.75855 25.6727 1.95846 30.1673 1.12967 36.1933C-0.0993549 45.1303 -0.196771 46.4086 0.228763 48.0048C1.23766 51.7905 3.91433 53.7702 8.02467 53.7702C14.0173 53.7702 16.6777 50.0579 17.6518 40.3367C17.8814 38.0445 18.1567 35.7114 18.2635 35.1518L18.4572 34.1345L19.9283 35.6106C21.9646 37.6539 24.9573 38.5363 27.8182 37.9369C36.3617 36.1467 38.1458 24.6372 30.5723 20.1699C29.0842 19.2924 28.357 19.1196 26.1485 19.1196C23.9454 19.1196 23.2117 19.2928 21.7395 20.1611C20.7684 20.734 19.6372 21.6319 19.226 22.1567L18.4784 23.1103L17.4049 22.0366C16.8144 21.4463 15.9916 20.7518 15.5763 20.493C15.039 20.1585 14.9612 19.9641 15.3071 19.819C17.6685 18.8294 19.5949 15.4562 19.5949 12.3112C19.5949 7.07321 15.272 4.1157 10.2346 5.90741ZM14.8083 8.10224C18.1491 9.50295 18.0528 14.977 14.6463 17.3108C12.8887 18.5145 11.1922 18.7468 9.62033 17.9981C5.89889 16.2261 6.46677 10.2186 10.5469 8.20113C12.0995 7.43315 13.1541 7.4089 14.8083 8.10224ZM71.9982 7.81127C71.1656 7.956 71.0512 8.13786 71.1913 9.09566L71.3544 10.2111L76.5076 10.119C81.6499 10.0266 81.6657 10.0292 84.1842 11.2712C92.4857 15.3653 93.1064 26.8309 85.4306 34.2834L83.0801 36.5654L86.2496 40.1541C89.6108 43.9607 90.4154 45.6103 89.9986 47.8392C89.5383 50.3016 87.1807 52.2713 84.6932 52.2713C82.3567 52.2713 80.9442 51.1764 75.6463 45.2568C72.7578 42.0299 70.2821 39.3895 70.1442 39.3895C70.0068 39.3895 69.8539 40.2844 69.8044 41.3786C69.6436 44.9507 69.0338 48.8414 68.4602 49.9541C67.0632 52.6654 62.9638 54.3612 59.9775 53.4633C58.3441 52.9723 56.3172 50.9225 55.9283 49.3688C55.7916 48.8217 56.0473 45.6281 56.497 42.2716C56.9463 38.9152 57.3106 36.041 57.3065 35.8849C57.2948 35.4393 55.4854 35.5526 55.1996 36.0168C54.8352 36.6078 53.5352 46.0634 53.5379 48.1037C53.5416 51.387 55.9053 54.6571 59.0203 55.6884C60.8203 56.2848 64.6667 55.987 66.3779 55.1194C69.4412 53.5663 71.229 50.8574 71.5526 47.2785C71.6621 46.0653 71.8728 45.0727 72.0208 45.0727C72.1688 45.0727 73.8868 46.8667 75.8385 49.0596C78.0323 51.5242 79.9738 53.3326 80.9226 53.7956C82.6316 54.6295 86.0249 54.8011 87.764 54.1415C90.3995 53.1424 92.3973 49.967 92.3973 46.7776C92.3973 44.2884 91.4757 42.3732 88.8802 39.4698C87.7085 38.1597 86.7502 36.9924 86.7502 36.876C86.7502 36.7594 87.4476 35.8709 88.3002 34.901C95.8865 26.2724 94.272 13.4122 85.0307 8.85924C82.9257 7.82225 82.4794 7.74989 77.8771 7.69798C75.1774 7.66729 72.5321 7.71844 71.9982 7.81127ZM72.0133 17.6988C72.0072 17.8553 71.7573 20.4551 71.4582 23.4767C71.1592 26.4982 70.9092 29.6334 70.9032 30.4439L70.8918 31.9177L72.8183 31.6885C75.3005 31.3937 77.6441 30.0006 79.0268 27.9986C80.5009 25.864 80.7799 22.0464 79.5996 20.1581C78.4231 18.2751 76.733 17.4177 74.1957 17.4162C73.0018 17.4154 72.0197 17.5423 72.0133 17.6988ZM76.1855 20.26C78.2566 21.3349 78.6647 23.7328 77.2103 26.2789C76.4427 27.622 74.1273 29.3379 73.5583 28.9848C73.3865 28.8783 74.0288 20.396 74.255 19.7826C74.3467 19.5341 75.1872 19.7421 76.1855 20.26ZM30.2034 22.8072C35.4064 26.7892 32.6452 35.6007 26.1946 35.6007C22.8866 35.6007 20.5241 33.7469 19.5141 30.3582C18.6309 27.3958 20.253 23.6063 23.0071 22.1984C24.935 21.2129 28.516 21.5156 30.2034 22.8072ZM14.1747 22.7151C17.0319 24.0166 17.0889 24.4845 15.7828 35.9493C14.6584 45.821 14.1823 47.8942 12.6697 49.5097C11.4958 50.7634 8.87611 51.6519 7.06939 51.4086C4.92624 51.1199 3.7346 50.2129 2.84313 48.1904L2.07438 46.4465L3.45028 36.637C4.20733 31.2418 5.06368 26.3717 5.35366 25.8151C7.1332 22.3973 10.7134 21.139 14.1747 22.7151Z" fill="white"></path> </svg> 