<?xml version="1.0" encoding="UTF-8"?> <svg xmlns="http://www.w3.org/2000/svg" width="306" height="56" viewBox="0 0 306 56" fill="none"> <path fill-rule="evenodd" clip-rule="evenodd" d="M78.7959 24.5877C78.7959 25.386 79.6144 25.6933 81.7429 25.6933C83.3638 25.6933 84.6899 26.0206 84.6899 26.4209C84.6899 26.8211 83.1266 30.2966 81.2154 34.1457L77.7416 41.143L80.2547 43.7376C81.6376 45.1646 83.0322 46.3322 83.3535 46.3322C83.6754 46.3322 85.437 43.347 87.2686 39.6983C89.7861 34.683 90.9568 33.0644 92.0649 33.0644C92.8716 33.0644 93.531 33.402 93.531 33.8147C93.531 34.2275 91.8947 37.8283 89.8944 41.816L86.2578 49.0661L89.4722 52.2224L92.6867 55.3786L100.476 39.8059C104.761 31.2408 108.266 24.0636 108.266 23.8572C108.266 23.6508 106.194 23.4828 103.661 23.4842L99.0566 23.4865L97.2148 26.9855C95.9785 29.3339 94.8277 30.5619 93.7152 30.7204C91.6898 31.0079 91.6795 30.7993 93.531 27.1676C94.3414 25.5784 95.0045 24.099 95.0045 23.8801C95.0045 23.6612 91.3576 23.482 86.9002 23.482C80.1876 23.482 78.7959 23.6722 78.7959 24.5877ZM106.042 33.9857L100.963 44.4895L110.686 44.6966C119.214 44.8779 120.524 44.746 121.344 43.6241C122.65 41.8381 120.889 40.958 116.68 41.2926C114.889 41.4349 113.423 41.3096 113.423 41.0133C113.423 40.717 114.153 38.973 115.043 37.1383L116.664 33.8015H121.556C126.059 33.8015 126.515 33.6548 127.288 31.9587L128.127 30.116H123.328C118.757 30.116 118.567 30.0459 119.317 28.6418C119.98 27.4019 120.86 27.1676 124.843 27.1676C128.772 27.1676 129.71 26.9243 130.343 25.742C130.762 24.9577 131.105 24.1285 131.105 23.8992C131.105 23.67 126.609 23.482 121.114 23.482H111.121L106.042 33.9857ZM129.637 33.7919C126.798 39.4617 124.475 44.2713 124.475 44.4799C124.475 44.6877 126.734 44.858 129.496 44.858C134.509 44.858 134.518 44.8536 135.746 42.2782C136.67 40.3396 137.436 39.6983 138.83 39.6983C139.849 39.6983 140.683 39.8332 140.683 39.9983C140.683 40.1634 139.72 42.4462 138.542 45.0725L136.401 49.8467L139.535 52.9234L142.668 56L143.781 54.2988C147.918 47.9759 149.818 41.8963 148.006 40.7759C147.569 40.5062 148.301 39.7551 149.664 39.074C151.354 38.23 152.812 36.4978 154.413 33.4329C157.601 27.3305 157.9 26.0707 156.496 24.6651C155.523 23.6921 153.49 23.482 145.056 23.482H134.799L129.637 33.7919ZM162.324 24.0459C161.868 24.3437 159.47 28.6336 156.996 33.5781C151.191 45.1838 151.052 44.9796 164.517 44.6944L174.206 44.4895L178.904 35.3214L183.602 26.1526L181.953 24.8177C180.57 23.6973 178.921 23.4835 171.729 23.4931C167.013 23.4997 162.781 23.7481 162.324 24.0459ZM187.272 24.4034C186.496 25.3661 178.258 41.6406 178.258 42.2133C178.258 42.3939 178.779 43.0624 179.415 43.7C180.343 44.628 182.387 44.858 189.712 44.858H198.85L199.973 42.6836C201.712 39.3194 201.433 38.9612 197.071 38.9612C193.799 38.9612 192.897 39.2376 192.256 40.4354C191.456 41.931 188.572 42.5155 188.572 41.1821C188.572 40.7818 190.14 37.299 192.054 33.4425C194.925 27.6607 195.83 26.4304 197.212 26.4304C199.108 26.4304 199.203 26.6737 198.105 28.7265C197.358 30.1219 197.534 30.1786 201.958 29.9678C206.241 29.7644 206.647 29.5963 207.288 27.7646C208.584 24.0621 207.195 23.482 197.045 23.482C190.71 23.482 187.794 23.757 187.272 24.4034ZM207.167 34.17L201.841 44.858H207.007H212.172L213.402 42.2782C214.371 40.246 215.066 39.6983 216.675 39.6983H218.717L216.538 44.3052C215.34 46.8393 214.36 49.3005 214.36 49.776C214.359 50.2514 215.743 51.8251 217.434 53.2735L220.51 55.9071L223.697 49.9403C226.985 43.7833 227.411 42.3224 226.147 41.5411C224.882 40.759 225.336 39.8767 227.251 39.3961C228.64 39.0474 229.815 37.4936 232.04 33.0673C233.661 29.8403 234.988 26.7069 234.988 26.1039C234.988 24.0651 232.169 23.482 222.316 23.482H212.494L207.167 34.17ZM240.278 23.9877C239.384 24.3452 231.32 39.8516 230.212 43.3433C229.764 44.757 230.028 44.858 234.185 44.858C238.122 44.858 238.778 44.6443 239.845 43.0153C240.573 41.9022 241.748 41.1725 242.809 41.1725C244.783 41.1725 244.886 41.4076 243.803 43.4325C243.085 44.774 243.323 44.858 247.85 44.858H252.661L257.822 34.5482C260.662 28.8784 262.985 24.0688 262.985 23.8602C262.985 23.3634 241.539 23.4828 240.278 23.9877ZM259.85 36.2081C256.302 43.1951 253.402 49.0905 253.403 49.3086C253.405 49.5268 254.894 50.9494 256.713 52.4701L260.019 55.2349L263.51 48.2037L267.001 41.1725H270.4C273.311 41.1725 273.92 40.9079 274.639 39.3297C275.466 37.5135 275.43 37.487 272.185 37.487H268.891L271.625 31.9587C273.851 27.458 274.676 26.4304 276.065 26.4304C277.524 26.4304 277.661 26.6376 277.009 27.856C275.644 30.4079 276.124 30.8531 280.241 30.8531C284.189 30.8531 284.247 30.8206 285.128 28.1501C286.477 24.0614 285.19 23.4798 274.816 23.4931L266.3 23.5041L259.85 36.2081ZM287.745 24.6481C287.085 26.3678 287.134 26.4304 289.139 26.4304C290.153 26.4304 290.981 26.6015 290.981 26.8101C290.981 27.0194 288.99 31.1656 286.555 36.0238L282.129 44.858H286.927H291.726L296.313 35.6442C300.508 27.2169 301.072 26.4304 302.914 26.4304C304.174 26.4304 305.223 25.8784 305.716 24.9562C306.486 23.5189 306.276 23.482 297.348 23.482C289.679 23.482 288.119 23.6715 287.745 24.6481ZM144.96 31.7744C143.227 35.0538 142.048 36.4491 140.867 36.6172C138.734 36.9202 138.78 36.1853 141.205 31.2378C142.928 27.7226 143.487 27.1676 145.298 27.1676H147.395L144.96 31.7744ZM173.074 27.7204C173.059 28.0241 171.484 31.2585 169.574 34.9071C166.955 39.9106 165.694 41.5993 164.444 41.7769C163.531 41.9059 162.786 41.8278 162.786 41.6022C162.786 41.3767 164.353 38.0361 166.268 34.1796C169.138 28.3978 170.043 27.1676 171.425 27.1676C172.347 27.1676 173.089 27.4167 173.074 27.7204ZM224.674 27.5575C224.674 27.7712 223.675 29.9273 222.453 32.3486C220.636 35.9494 219.899 36.7499 218.401 36.7499C217.394 36.7499 216.569 36.5745 216.569 36.36C216.569 36.1462 217.568 33.9902 218.79 31.5688C220.607 27.968 221.344 27.1676 222.842 27.1676C223.849 27.1676 224.674 27.343 224.674 27.5575ZM251.197 27.5545C251.197 27.7676 250.032 30.2553 248.608 33.0828C246.711 36.8531 245.631 38.2241 244.556 38.2241C242.599 38.2241 242.69 37.5946 245.461 31.9727C247.345 28.1501 248.174 27.1676 249.513 27.1676C250.439 27.1676 251.197 27.3415 251.197 27.5545Z" fill="white"></path> <path d="M29.0613 6.0586C28.7496 5.34877 28.3997 3.44188 28.2833 1.82025C28.1676 0.198629 28.2398 -0.464763 28.4439 0.34605C29.381 4.05884 30.5723 6.02542 32.4842 7.01462C35.0275 8.33034 35.3642 8.34288 35.3642 7.12076C35.3642 6.59005 35.8843 5.5124 36.5194 4.72518C37.6216 3.3608 37.654 3.3925 37.2193 5.41289C36.8775 7.00135 37.251 8.23452 38.7127 10.3448C41.0232 13.6802 40.7093 14.6001 37.4249 14.1181C35.2397 13.7967 35.1004 13.8815 36.0096 14.9775C36.5644 15.6468 37.7535 16.1938 38.6516 16.1938C39.6786 16.1938 40.5966 16.8778 41.1241 18.0365C41.5861 19.05 42.4275 19.8793 42.994 19.8793C43.5613 19.8793 44.4373 20.3768 44.942 20.9849C45.5756 21.7486 45.6036 22.0906 45.0319 22.0906C44.5773 22.0906 43.5495 22.7466 42.7487 23.5478C41.0497 25.2476 39.6771 24.9387 38.6641 22.6294C38.1027 21.349 37.1265 20.8884 34.2591 20.5478C32.233 20.3075 30.9901 20.0591 31.4962 19.995C32.773 19.8343 32.6279 19.0773 30.909 16.9309C30.0971 15.9173 29.5247 15.4426 29.6359 15.8753C29.7472 16.3087 28.5529 17.8802 26.9821 19.3685C24.4713 21.7456 24.181 22.364 24.5855 24.4773C25.225 27.8149 28.4402 30.4729 34.1309 32.3673C39.6241 34.196 42.2772 36.0262 43.8516 39.0727C46.3065 43.8218 44.1795 49.8278 38.81 53.3113C35.8549 55.2285 35.7267 55.2469 34.6414 53.9076C33.0965 52 31.4211 51.5408 28.7747 52.3L26.5217 52.9464L29.4576 49.4629C33.3735 44.8169 33.9341 41.9688 31.4277 39.4611C30.134 38.1668 28.771 37.583 27.1089 37.611L24.6813 37.653L27.2599 38.5324C29.5726 39.3218 29.8614 39.7199 30.0573 42.3941C30.2393 44.8619 29.7641 46.1319 27.2989 49.7651C24.3563 54.1015 24.3166 55.3619 27.1707 53.8339C29.2329 52.7297 31.3422 52.8587 32.4172 54.1545C33.2261 55.1297 31.9287 55.2602 21.4322 55.2602C12.5432 55.2602 8.86389 54.9816 6.89749 54.1597C5.44903 53.5538 3.94679 53.2545 3.55925 53.4948C2.80334 53.9614 0 51.7678 0 50.7093C0 49.9553 3.65504 50.7278 4.96351 51.759C6.37661 52.872 9.42455 51.7567 10.8288 49.6133C11.7947 48.1376 12.2272 45.1951 12.639 37.2985C13.0715 29.0053 13.42 26.7461 14.377 26.0459C15.4674 25.2483 15.4549 25.1363 14.2333 24.781C12.0857 24.1559 8.07925 24.624 7.49647 25.5682C7.14652 26.1336 6.58216 26.1992 5.87488 25.7562C5.09834 25.2712 4.408 25.5454 3.45316 26.7166L2.11817 28.3559L2.60885 26.5132C3.38023 23.6215 5.03571 21.4058 7.59151 19.8468C10.9541 17.7955 12.8055 17.9215 12.2434 20.1638C11.7888 21.9756 12.5167 22.9368 15.0232 23.836C16.0959 24.2208 16.2381 24.1198 15.6391 23.3975C14.587 22.1289 16.0539 18.7581 19.048 15.5628C21.7394 12.691 21.7991 12.5119 20.0765 12.4972C18.9744 12.4876 18.9478 12.3815 19.8924 11.7711C20.5002 11.3783 22.4128 11.0517 24.1427 11.0451C27.128 11.0348 27.2643 10.9404 26.8259 9.19128C26.4369 7.64115 26.6226 7.34852 27.9959 7.34852C29.2749 7.34852 29.5055 7.06916 29.0613 6.0586Z" fill="white"></path> <path d="M49.7044 42.6543C49.0995 40.939 48.7989 38.9223 49.0369 38.1734C49.7515 35.9186 50.6231 37.3081 51.0084 41.3186C51.2081 43.3973 51.8019 45.3638 52.3272 45.6889C53.5952 46.4732 56.207 44.8597 55.2381 43.8904C54.8432 43.4953 54.5198 42.5747 54.5198 41.8449C54.5198 40.7879 55.1203 40.5181 57.4771 40.5181C59.1031 40.5181 61.1027 40.1039 61.9198 39.5968C63.145 38.8375 63.5296 38.87 64.1086 39.781C65.244 41.5663 64.9662 41.9017 62.6005 41.6024C61.236 41.4292 60.5435 41.6061 60.822 42.0565C61.0725 42.4619 60.9016 43.2476 60.4418 43.8019C59.8671 44.4948 59.8473 44.9592 60.3777 45.2872C61.5381 46.0044 61.3075 48.4656 60.0116 49.1909C59.305 49.586 58.8261 50.999 58.7502 52.9125C58.6279 55.9818 58.6125 55.9973 55.7752 55.9973C53.8177 55.9973 53.022 55.7084 53.2378 55.0759C53.4102 54.5695 54.3496 54.2666 55.3251 54.4037L57.0984 54.6528L55.4407 53.085C54.5286 52.2226 53.783 50.6784 53.783 49.6538C53.783 48.125 53.5178 47.8737 52.3095 48.2577C50.962 48.6852 50.4787 48.0786 50.7329 46.2786C50.7719 46.0007 50.3092 44.3695 49.7044 42.6543Z" fill="white"></path> </svg> 