<?xml version="1.0" encoding="UTF-8"?> <svg xmlns="http://www.w3.org/2000/svg" width="86" height="56" viewBox="0 0 86 56" fill="none"> <path fill-rule="evenodd" clip-rule="evenodd" d="M85.2764 0.118556C81.5235 0.978113 80.6033 1.19141 75.7668 2.32395C74.5161 2.61704 57.3988 6.59774 37.7284 11.1701C18.0579 15.7426 1.52195 19.5865 0.981971 19.7122L0 19.9409V28.3108V36.6806L0.56851 36.8075C0.881293 36.8775 1.46262 37.0141 1.86058 37.1111C2.25853 37.2081 4.0726 37.6199 5.89183 38.026C11.5765 39.2954 13.4131 39.7066 17.7788 40.6877C20.1097 41.2116 22.9936 41.8597 24.1875 42.1279C25.3814 42.3962 29.4746 43.3173 33.2837 44.1748C37.0927 45.0323 41.6046 46.0471 43.3101 46.4302C45.0156 46.8133 48.0856 47.5051 50.1322 47.9674C52.1788 48.4297 55.2953 49.1264 57.0577 49.5155C58.8201 49.9045 60.6341 50.3149 61.0889 50.4275C61.5437 50.5399 64.6137 51.2342 67.9111 51.9703C71.2084 52.7064 75.1621 53.592 76.6971 53.9382C82.4322 55.2317 84.6749 55.7321 85.3281 55.8642L86 56V27.988C86 12.5816 85.9303 -0.0131159 85.845 1.02507e-05C85.7596 0.0131364 85.5038 0.0664619 85.2764 0.118556ZM17.9463 22.8957C17.8828 23.6574 17.8727 23.6654 16.9002 23.7273L15.9183 23.7899V22.9582V22.1266H16.9643H18.0106L17.9463 22.8957ZM32.4567 27.254V32.3814H31.5264C30.61 32.3814 30.5962 32.3713 30.5962 31.6978C30.5962 30.7751 30.4128 30.6557 29.9303 31.2644C28.4023 33.1917 24.6874 32.7286 23.5872 30.4736C22.7274 28.7114 23.2477 26.5105 24.7589 25.5184C26.3662 24.463 28.9591 24.6849 29.9737 25.9645L30.3894 26.489V24.3078V22.1266H31.4231H32.4567V27.254ZM36.5913 22.9582V23.7899L35.6094 23.7273C34.6369 23.6654 34.6268 23.6574 34.5633 22.8957L34.499 22.1266H35.5453H36.5913V22.9582ZM50.403 22.8957C50.3396 23.6574 50.3294 23.6654 49.357 23.7273L48.375 23.7899V22.9582V22.1266H49.4211H50.4673L50.403 22.8957ZM70.9087 27.254V32.3814H69.875H68.8413V27.465V22.5485L69.5132 22.3561C71.0139 21.9262 70.9087 21.5568 70.9087 27.254ZM56.4375 24.9979C57.3432 25.0978 57.3678 25.1195 57.3678 25.8183C57.3678 26.5292 57.3583 26.5367 56.3858 26.5987L55.4038 26.6612V29.5213V32.3814H54.4736H53.5433V29.51V26.6387H52.613H51.6827V25.83C51.6827 25.0254 51.687 25.0213 52.5613 24.9583C53.4079 24.8976 53.4422 24.8683 53.5025 24.1531C53.5606 23.4624 53.6251 23.3982 54.4328 23.2277L55.3005 23.0446L55.4038 23.97L55.5072 24.8954L56.4375 24.9979ZM17.8822 28.2965V32.2788L16.9002 32.3414L15.9183 32.4039V28.5161V24.6285L16.6935 24.4253C17.12 24.3137 17.5618 24.243 17.6755 24.2682C17.8047 24.2969 17.8822 25.8091 17.8822 28.2965ZM36.5913 28.2794V32.3814H35.5577H34.524V28.4966V24.6119L35.4026 24.4167C35.886 24.3092 36.3511 24.2116 36.4363 24.1995C36.5215 24.1874 36.5913 26.0234 36.5913 28.2794ZM50.395 28.2282L50.3389 32.2788L49.357 32.3414L48.375 32.4039V28.5161V24.6285L49.1502 24.4243C49.5767 24.3119 50.0437 24.2103 50.1882 24.1987C50.3943 24.182 50.439 25.0506 50.395 28.2282ZM46.9279 25.6501V26.4875L46.1225 26.3805L45.317 26.2732L45.8124 26.9974C46.4051 27.8635 46.4237 28.3139 45.913 29.4292C45.4202 30.5062 44.2892 31.07 42.1731 31.2942C41.0063 31.4178 40.6226 31.5345 40.6226 31.7661C40.6226 32.0118 41.0592 32.0996 42.7933 32.2023C45.4601 32.3604 45.125 32.2833 45.8783 32.9124C46.4146 33.3601 46.5144 33.5877 46.5144 34.3638C46.5144 35.1007 46.3978 35.4 45.9296 35.8645C45.272 36.5167 44.1502 36.8906 42.845 36.8922L41.9663 36.8935V36.0954V35.2976L43.5102 35.2201C45.1905 35.136 45.7239 34.8616 45.3509 34.2728C45.162 33.9745 44.6751 33.9036 42.2241 33.817C39.7256 33.7288 39.259 33.6587 38.8763 33.3148C38.1714 32.681 38.3713 31.7757 39.3343 31.2416L40.113 30.8097L39.592 30.5743C38.4259 30.0472 37.8615 27.9695 38.5342 26.6793C39.3072 25.1962 40.3644 24.8425 44.0742 24.8256L46.9279 24.8127V25.6501ZM63.3276 25.0726C63.6987 25.2264 64.254 25.6489 64.5614 26.0113L65.1202 26.6701V25.8341V24.9979H66.1586H67.197L67.1406 28.6384L67.0841 32.2788H66.1538H65.2236L65.1605 31.4191L65.0977 30.5591L64.3747 31.353C62.7118 33.179 59.1076 32.6324 58.1728 30.4124C57.8048 29.5389 57.8025 27.842 58.168 26.991C58.9208 25.2383 61.4547 24.2961 63.3276 25.0726ZM26.5649 26.6274C25.3756 27.1104 24.8993 28.7278 25.6139 29.8579C26.7857 31.7111 30.3894 30.9262 30.3894 28.8176C30.3894 27.7831 30.0198 27.1163 29.2441 26.7511C28.5233 26.4116 27.2419 26.3526 26.5649 26.6274ZM40.9953 26.6676C40.3793 26.9785 40.0698 27.9107 40.3336 28.6613C40.5796 29.3617 41.2721 29.7151 42.399 29.7151C43.9303 29.7151 44.7808 28.1666 43.8654 27.0452C43.4296 26.5111 41.7449 26.2894 40.9953 26.6676ZM61.0536 26.7326C60.23 27.088 59.9519 27.5973 59.9519 28.7508C59.9519 29.4546 60.0724 29.7787 60.4869 30.1901C61.5828 31.2771 64.0024 31.0165 64.7692 29.7287C65.9899 27.6783 63.5052 25.6745 61.0536 26.7326ZM22.3269 27.9718V29.0998H20.5697H18.8125V28.3974V27.6949L20.518 27.2913C21.456 27.0692 22.2469 26.8776 22.2752 26.8657C22.3036 26.8536 22.3269 27.3514 22.3269 27.9718Z" fill="white"></path> </svg> 