<?xml version="1.0" encoding="UTF-8"?> <svg xmlns="http://www.w3.org/2000/svg" width="28" height="28" viewBox="0 0 28 28" fill="none"> <path d="M14.0001 1C6.57726 1 0.560059 7.0172 0.560059 14.44C0.560059 21.8628 6.57726 27.88 14.0001 27.88C21.4229 27.88 27.4401 21.8628 27.4401 14.44C27.4401 7.0172 21.4229 1 14.0001 1ZM19.1689 16.1634C19.1689 16.1634 20.3575 17.3366 20.6501 17.8812C20.6585 17.8924 20.6627 17.9036 20.6655 17.9092C20.7845 18.1094 20.8125 18.2648 20.7537 18.381C20.6557 18.5742 20.3197 18.6694 20.2049 18.6778H18.1049C17.9593 18.6778 17.6541 18.64 17.2845 18.3852C17.0003 18.1864 16.7203 17.8602 16.4473 17.5424C16.0399 17.0692 15.6871 16.6604 15.3315 16.6604C15.2863 16.6603 15.2414 16.6674 15.1985 16.6814C14.9297 16.7682 14.5853 17.1518 14.5853 18.1738C14.5853 18.493 14.3333 18.6764 14.1555 18.6764H13.1937C12.8661 18.6764 11.1595 18.5616 9.64746 16.967C7.79666 15.014 6.13066 11.0968 6.11666 11.0604C6.01166 10.807 6.22866 10.6712 6.46526 10.6712H8.58626C8.86906 10.6712 8.96146 10.8434 9.02586 10.996C9.10146 11.1738 9.37866 11.8808 9.83366 12.676C10.5715 13.9724 11.0237 14.4988 11.3863 14.4988C11.4542 14.498 11.521 14.4807 11.5809 14.4484C12.0541 14.1852 11.9659 12.4982 11.9449 12.1482C11.9449 12.0824 11.9435 11.3936 11.7013 11.0632C11.5277 10.8238 11.2323 10.7328 11.0531 10.6992C11.1256 10.5991 11.2211 10.518 11.3317 10.4626C11.6565 10.3002 12.2417 10.2764 12.8227 10.2764H13.1461C13.7761 10.2848 13.9385 10.3254 14.1667 10.3828C14.6287 10.4934 14.6385 10.7916 14.5979 11.8122C14.5853 12.102 14.5727 12.4296 14.5727 12.816C14.5727 12.9 14.5685 12.9896 14.5685 13.0848C14.5545 13.6042 14.5377 14.1936 14.9045 14.4358C14.9523 14.4658 15.0076 14.4818 15.0641 14.482C15.1915 14.482 15.5751 14.482 16.6139 12.6998C16.9342 12.1262 17.2126 11.5301 17.4469 10.9162C17.4679 10.8798 17.5295 10.7678 17.6023 10.7244C17.656 10.697 17.7156 10.6831 17.7759 10.6838H20.2693C20.5409 10.6838 20.7271 10.7244 20.7621 10.8294C20.8237 10.996 20.7509 11.5042 19.6127 13.0456L19.1045 13.7162C18.0727 15.0686 18.0727 15.1372 19.1689 16.1634V16.1634Z" fill="#D9E3EC"></path> </svg> 