<?xml version="1.0" encoding="UTF-8"?> <svg xmlns="http://www.w3.org/2000/svg" width="42" height="32" viewBox="0 0 42 32" fill="none"> <path fill-rule="evenodd" clip-rule="evenodd" d="M12.7347 0.693744C6.05991 4.15948 1.52444 9.77036 0.261704 16.1244C-0.0594348 17.7402 -0.0903304 20.7911 0.198473 22.3688C0.552389 24.3019 1.31316 26.2275 2.24235 27.5425C3.53676 29.374 4.48966 30.2453 6.05892 31.0319C7.49872 31.7537 8.39448 31.953 10.1878 31.9507C11.9932 31.9484 12.7198 31.7901 14.0236 31.115C15.5751 30.3116 16.6789 29.0949 17.5638 27.2125C18.1344 25.9985 18.3485 25.0261 18.342 23.6786C18.3199 19.149 14.9172 15.7555 10.1335 15.492C8.82502 15.4199 8.02041 15.5354 7.01746 15.9392L6.34462 16.2101L6.42213 15.694C6.6714 14.0339 7.42021 11.889 8.26359 10.4195C9.71867 7.88409 12.2342 5.43513 15.1888 3.67726C15.7618 3.33635 16.2165 3.02591 16.1991 2.98749C16.113 2.7965 14.1668 0.00629429 14.1189 0.00507991C14.0885 0.00430712 13.4656 0.314195 12.7347 0.693744ZM36.3771 0.670671C28.9016 4.59699 24.1214 11.1339 23.6546 18.0687C23.3289 22.9086 24.7157 26.9104 27.6755 29.6706C30.7347 32.5237 36.1834 32.8016 39.0538 30.2512C40.1702 29.2591 41.3394 27.2972 41.7444 25.736C42.6885 22.0962 40.9535 18.2378 37.5948 16.5084C35.3725 15.3641 32.5942 15.1408 30.5911 15.9453C30.2409 16.0859 29.9544 16.1773 29.9544 16.1484C29.9544 16.1195 30.0544 15.6067 30.1765 15.0089C31.1173 10.4065 33.9569 6.66265 38.7303 3.73091C39.3242 3.36626 39.81 3.04434 39.81 3.01575C39.81 2.92257 37.7757 -0.00198616 37.7122 1.01221e-06C37.6783 0.000994597 37.0776 0.302824 36.3771 0.670671Z" fill="#9592DE"></path> </svg> 