<?xml version="1.0" encoding="UTF-8"?> <svg xmlns="http://www.w3.org/2000/svg" width="111" height="33" viewBox="0 0 111 33" fill="none"> <path d="M4.32812 7.70312V25H0.65625V7.70312H4.32812ZM2.51562 1.07812C3.07812 1.07812 3.5625 1.22917 3.96875 1.53125C4.38542 1.83333 4.59375 2.35417 4.59375 3.09375C4.59375 3.82292 4.38542 4.34375 3.96875 4.65625C3.5625 4.95833 3.07812 5.10938 2.51562 5.10938C1.93229 5.10938 1.4375 4.95833 1.03125 4.65625C0.635417 4.34375 0.4375 3.82292 0.4375 3.09375C0.4375 2.35417 0.635417 1.83333 1.03125 1.53125C1.4375 1.22917 1.93229 1.07812 2.51562 1.07812Z" fill="white"></path> <path d="M35.4531 25V2.15625H39.2031V21.8125H48.9062V25H35.4531Z" fill="white"></path> <path d="M59.375 7.375C60.9167 7.375 62.2396 7.69271 63.3438 8.32812C64.4479 8.96354 65.2969 9.86458 65.8906 11.0312C66.4844 12.1979 66.7812 13.5938 66.7812 15.2188V17.1875H55.2344C55.276 18.8646 55.724 20.1562 56.5781 21.0625C57.4427 21.9688 58.651 22.4219 60.2031 22.4219C61.3073 22.4219 62.2969 22.3177 63.1719 22.1094C64.0573 21.8906 64.9688 21.5729 65.9062 21.1562V24.1406C65.0417 24.5469 64.1615 24.8438 63.2656 25.0312C62.3698 25.2188 61.2969 25.3125 60.0469 25.3125C58.349 25.3125 56.8542 24.9844 55.5625 24.3281C54.2812 23.6615 53.276 22.6719 52.5469 21.3594C51.8281 20.0469 51.4688 18.4167 51.4688 16.4688C51.4688 14.5312 51.7969 12.8854 52.4531 11.5312C53.1094 10.1771 54.0312 9.14583 55.2188 8.4375C56.4062 7.72917 57.7917 7.375 59.375 7.375ZM59.375 10.1406C58.2188 10.1406 57.2812 10.5156 56.5625 11.2656C55.8542 12.0156 55.4375 13.1146 55.3125 14.5625H63.1875C63.1771 13.6979 63.0312 12.9323 62.75 12.2656C62.4792 11.599 62.0625 11.0781 61.5 10.7031C60.9479 10.3281 60.2396 10.1406 59.375 10.1406Z" fill="white"></path> <path d="M75.8594 32.6875C73.5156 32.6875 71.7188 32.2656 70.4688 31.4219C69.2188 30.5781 68.5938 29.3958 68.5938 27.875C68.5938 26.8125 68.9271 25.9115 69.5938 25.1719C70.2604 24.4427 71.2135 23.9375 72.4531 23.6562C71.9844 23.4479 71.5781 23.125 71.2344 22.6875C70.901 22.2396 70.7344 21.7448 70.7344 21.2031C70.7344 20.5573 70.9167 20.0052 71.2812 19.5469C71.6458 19.0885 72.1927 18.6458 72.9219 18.2188C72.0156 17.8333 71.2865 17.2083 70.7344 16.3438C70.1927 15.4688 69.9219 14.4427 69.9219 13.2656C69.9219 12.0156 70.1875 10.9531 70.7188 10.0781C71.25 9.19271 72.026 8.52083 73.0469 8.0625C74.0677 7.59375 75.3021 7.35938 76.75 7.35938C77.0625 7.35938 77.401 7.38021 77.7656 7.42188C78.1406 7.45312 78.4844 7.49479 78.7969 7.54688C79.1198 7.58854 79.3646 7.63542 79.5312 7.6875H85.5156V9.73438L82.5781 10.2812C82.8594 10.6771 83.0833 11.1302 83.25 11.6406C83.4167 12.1406 83.5 12.6875 83.5 13.2812C83.5 15.0729 82.8802 16.4844 81.6406 17.5156C80.4115 18.5365 78.7135 19.0469 76.5469 19.0469C76.026 19.026 75.5208 18.9844 75.0312 18.9219C74.6562 19.151 74.3698 19.4062 74.1719 19.6875C73.974 19.9583 73.875 20.2656 73.875 20.6094C73.875 20.8906 73.974 21.1198 74.1719 21.2969C74.3698 21.4635 74.6615 21.5885 75.0469 21.6719C75.4427 21.7552 75.9219 21.7969 76.4844 21.7969H79.4688C81.3646 21.7969 82.8125 22.1979 83.8125 23C84.8125 23.8021 85.3125 24.9792 85.3125 26.5312C85.3125 28.5 84.5 30.0156 82.875 31.0781C81.25 32.151 78.9115 32.6875 75.8594 32.6875ZM76 30.1094C77.2812 30.1094 78.3594 29.9844 79.2344 29.7344C80.1094 29.4844 80.7708 29.125 81.2188 28.6562C81.6667 28.1979 81.8906 27.651 81.8906 27.0156C81.8906 26.4531 81.75 26.0208 81.4688 25.7188C81.1875 25.4167 80.7656 25.2083 80.2031 25.0938C79.6406 24.9792 78.9427 24.9219 78.1094 24.9219H75.3906C74.7135 24.9219 74.1146 25.026 73.5938 25.2344C73.0729 25.4531 72.6667 25.7656 72.375 26.1719C72.0938 26.5781 71.9531 27.0677 71.9531 27.6406C71.9531 28.4323 72.3021 29.0417 73 29.4688C73.7083 29.8958 74.7083 30.1094 76 30.1094ZM76.7188 16.6406C77.7917 16.6406 78.5885 16.349 79.1094 15.7656C79.6302 15.1719 79.8906 14.3385 79.8906 13.2656C79.8906 12.099 79.6198 11.224 79.0781 10.6406C78.5469 10.0573 77.7552 9.76562 76.7031 9.76562C75.6719 9.76562 74.8854 10.0625 74.3438 10.6562C73.8125 11.25 73.5469 12.1302 73.5469 13.2969C73.5469 14.349 73.8125 15.1719 74.3438 15.7656C74.8854 16.349 75.6771 16.6406 76.7188 16.6406Z" fill="white"></path> <path d="M95.4531 7.375C97.6406 7.375 99.2917 7.85938 100.406 8.82812C101.531 9.79688 102.094 11.3073 102.094 13.3594V25H99.4844L98.7812 22.5469H98.6562C98.1667 23.1719 97.6615 23.6875 97.1406 24.0938C96.6198 24.5 96.0156 24.8021 95.3281 25C94.651 25.2083 93.8229 25.3125 92.8438 25.3125C91.8125 25.3125 90.8906 25.125 90.0781 24.75C89.2656 24.3646 88.625 23.7812 88.1562 23C87.6875 22.2188 87.4531 21.2292 87.4531 20.0312C87.4531 18.25 88.1146 16.9115 89.4375 16.0156C90.7708 15.1198 92.7812 14.625 95.4688 14.5312L98.4688 14.4219V13.5156C98.4688 12.3177 98.1875 11.4635 97.625 10.9531C97.0729 10.4427 96.2917 10.1875 95.2812 10.1875C94.4167 10.1875 93.5781 10.3125 92.7656 10.5625C91.9531 10.8125 91.1615 11.1198 90.3906 11.4844L89.2031 8.89062C90.0469 8.44271 91.0052 8.07812 92.0781 7.79688C93.1615 7.51562 94.2865 7.375 95.4531 7.375ZM98.4531 16.7344L96.2188 16.8125C94.3854 16.875 93.099 17.1875 92.3594 17.75C91.6198 18.3125 91.25 19.0833 91.25 20.0625C91.25 20.9167 91.5052 21.5417 92.0156 21.9375C92.526 22.3229 93.1979 22.5156 94.0312 22.5156C95.3021 22.5156 96.3542 22.1562 97.1875 21.4375C98.0312 20.7083 98.4531 19.6406 98.4531 18.2344V16.7344Z" fill="white"></path> <path d="M110.922 25H107.234V0.6875H110.922V25Z" fill="white"></path> <path d="M13.8334 20.5106V17.4159L27.4048 12V15.0948L13.8334 20.5106Z" fill="white"></path> </svg> 